# xmcd CD database file
#
# Track frame offsets:
#	150
#	37753
#	93111
#	150323
#	180871
#	221109
#	252432
#
# Disc length: 3945 seconds
#
# Revision: 0
# Processed by: cddbd v1.5.2PL0 Copyright (c) Steve Scherf et al.
# Submitted via: CDex 1.70beta2
#
DISCID=480f6707
DTITLE=Jeremy Pelt and Wired - Shock value - Live at Smoke
DYEAR=2007
DGENRE=Jazz
TTITLE0=Circular
TTITLE1=Blues
TTITLE2=Suspicion
TTITLE3=Cause
TTITLE4=Pythagorus
TTITLE5=Beyond
TTITLE6=Scorpio
EXTD=YEAR: 2007
EXTT0=
EXTT1=
EXTT2=
EXTT3=
EXTT4=
EXTT5=
EXTT6=
PLAYORDER=
